<?xml version="1.0" encoding="utf-8"?>
<!-- Svg Vector Icons : http://www.onlinewebfonts.com/icon -->
<!DOCTYPE svg PUBLIC "-//W3C//DTD SVG 1.1//EN" "http://www.w3.org/Graphics/SVG/1.1/DTD/svg11.dtd">
<svg version="1.1" xmlns="http://www.w3.org/2000/svg" xmlns:xlink="http://www.w3.org/1999/xlink" x="0px" y="0px" viewBox="0 0 1000 1000" enable-background="new 0 0 1000 1000" xml:space="preserve">
<metadata> Svg Vector Icons : http://www.onlinewebfonts.com/icon </metadata>
<g><g><g id="Heart"><g><path d="M683.8,10c-9.5,0-18.9,0.6-28.2,1.4c-3.4,0.3-6.8,0.8-10.2,1.3c-5.7,0.7-11.4,1.6-17.1,2.6c-4.2,0.8-8.3,1.6-12.3,2.5c-4.7,1.1-9.4,2.3-14,3.6c-4.4,1.2-8.8,2.4-13.2,3.8c-3.9,1.3-7.8,2.8-11.7,4.3c-10.2,3.8-20.2,8.2-29.9,13c-1.9,0.9-3.9,1.8-5.8,2.8c-5.1,2.7-10,5.7-15,8.6c-2.7,1.7-5.4,3.2-8.2,5c-4.8,3.1-9.4,6.3-14,9.6c-1.4,1-2.8,1.9-4.2,3C447,31.7,382.7,10,316.3,10C147.4,10,10,147.3,10,316.3c0,277.2,178.2,527.9,476.8,670.7c4.2,2,8.7,3.1,13.2,3.1s9-1,13.2-3.1C811.8,844.2,990,593.4,990,316.3C990,147.3,852.6,10,683.8,10z M500,925.3C231.3,792,71.3,565.2,71.3,316.3c0-135.1,109.9-245,245-245c49.4,0,97.3,15.3,137.9,43.1c-47.6,54-76.6,124.5-76.6,201.9c0,16.9,13.7,30.6,30.6,30.6s30.6-13.7,30.6-30.6c0-72.9,32.2-138.3,82.9-183.2c4.7-4.2,9.6-8.2,14.6-11.9c1.1-0.8,2.2-1.7,3.4-2.5c4.9-3.5,9.9-7,15-10.1c1.4-0.9,2.8-1.8,4.2-2.6c4.9-3,10-5.7,15.1-8.3c1.8-0.9,3.6-1.7,5.4-2.6c4.9-2.3,9.9-4.5,14.9-6.5c2.2-0.9,4.5-1.7,6.8-2.5c4.8-1.7,9.5-3.3,14.4-4.7c3-0.8,5.8-1.6,8.8-2.3c4.4-1.1,8.7-2.2,13.2-3.1c4.1-0.7,8.2-1.3,12.2-1.9c3.5-0.5,6.9-1.1,10.5-1.5c7.8-0.7,15.7-1.2,23.6-1.2c135.1,0,245,109.9,245,245C928.8,565.2,768.7,792,500,925.3z M683.8,132.5c-16.9,0-30.6,13.7-30.6,30.6s13.7,30.6,30.6,30.6c67.6,0,122.5,54.9,122.5,122.5c0,16.9,13.7,30.6,30.6,30.6s30.6-13.7,30.6-30.6C867.5,214.9,785.1,132.5,683.8,132.5z"/></g></g></g><g></g><g></g><g></g><g></g><g></g><g></g><g></g><g></g><g></g><g></g><g></g><g></g><g></g><g></g><g></g></g>
</svg>